<svg width="31" height="31" xmlns="http://www.w3.org/2000/svg"><g fill="none" fill-rule="evenodd"><circle cx="15.5" cy="15.5" r="15.5" fill="#FFF"/><path d="M17.2361912 10.2972816l-9.14621502 5.3435446 2.98350232 1.6079799 6.1627127-6.9515245zm2.4055413.6730793l-3.4125998 9.0256536 3.4125998 1.8276155V10.9703609zm-4.7664354 8.7548548l3.0966553-8.1900429-6.0649181 6.8412125.0192366 3.3172135 2.9490262-1.9683831zm-4.3256266-1.1888763l-4.18722758-2.2567363c-.47400889-.2554704-.48548707-.9452993-.02025163-1.2171064L19.9839215 7.09251201C20.4366707 6.82799985 21 7.16223944 21 7.69538074V22.9711848c0 .5219097-.5420671.857251-.9942566.6150813l-4.6774177-2.5049879-3.7025383 2.4713289c-.4501999.3004944-1.0471877-.027621-1.0503753-.5773056l-.0257416-4.4389621z" fill="#363D4A" fill-rule="nonzero"/></g></svg>