<svg width="31" height="31" xmlns="http://www.w3.org/2000/svg"><g fill="none" fill-rule="evenodd"><circle fill="#FFF" cx="15.5" cy="15.5" r="15.5"/><path d="M20.6882141 17.9543717V22.06426h-1.3051553v-4.1098883c-.1909993-.1066124-.3475102-.2611981-.4695376-.4637617-.1220273-.2025636-.18304-.4264464-.18304-.6716549 0-.2345474.0610127-.4530996.18304-.6556632.1220274-.2025636.2785383-.3624798.4695376-.4797535v-4.0938965h1.3051553v4.0938965c.2016104.1172737.3607741.2771899.4774958.4797535.1167218.2025636.1750819.4211158.1750819.6556632 0 .2452085-.0583601.4690913-.1750819.6716549-.1167217.2025636-.2758854.3571493-.4774958.4637617zm-9.1201706 0V22.06426h-1.3051553v-4.1098883c-.2016103-.1066124-.36077401-.2611981-.4774958-.4637617-.11672178-.2025636-.1750818-.4264464-.1750818-.6716549 0-.2345474.05836002-.4530996.1750818-.6556632.11672179-.2025636.2758855-.3624798.4774958-.4797535v-4.0938965h1.3051553v4.0938965c.1909993.1172737.3475103.2771899.4695376.4797535s.1830401.4211158.1830401.6556632c0 .2452085-.0610128.4690913-.1830401.6716549-.1220273.2025636-.2785383.3571493-.4695376.4637617zm7.8150153-7.6760561h2.6103106c.5411647 0 1.0027394.1918995 1.3847379.5757042.3819986.3838047.572995.8422313.572995 1.3752934v9.1792837c0 .5437234-.1909964 1.0074805-.572995 1.3912852-.3819985.3838047-.8435732.5757042-1.3847379.5757042H8.95773295c-.54116466 0-1.00273936-.1918995-1.38473794-.5757042C7.19099643 22.4160774 7 21.9523203 7 21.4085969v-9.1792837c0-.5330621.19099643-.9914887.57299501-1.3752934.38199858-.3838047.84357328-.5757042 1.38473794-.5757042h2.61031055V8.31132625c0-.36248224.127331-.67165363.3819967-.92752345C12.2047059 7.12793299 12.5124224 7 12.8731988 7h5.2047047c.3607764 0 .6684929.12793299.9231586.3838028.2546658.25586982.3819967.56504121.3819967.92752345v1.96698935zm-1.3051553 0V8.96698937c0-.18124112-.0636655-.33582682-.1909983-.46376172-.1273329-.12793491-.2811911-.1919014-.4615793-.1919014H13.50986c-.1697772 0-.31833.06396649-.4456628.1919014-.1273329.1279349-.1909984.2825206-.1909984.46376172v1.31132623h5.2047047zm-9.7727482 2.6066607v7.8679575c0 .3624822.12733095.6716536.38199667.9275234.25466572.2558698.55707673.3838028.9072421.3838028H21.3407918c.3607764 0 .6684929-.127933.9231586-.3838028.2546657-.2558698.3819966-.5650412.3819966-.9275234v-7.8679575c0-.351821-.1273309-.6556618-.3819966-.9115316-.2546657-.2558699-.5623822-.3838028-.9231586-.3838028H9.59439407c-.35016537 0-.65257638.1279329-.9072421.3838028-.25466572.2558698-.38199667.5597106-.38199667.9115316z" fill="#363D4A"/></g></svg>