<svg width="31" height="31" xmlns="http://www.w3.org/2000/svg"><g fill="none" fill-rule="evenodd"><circle fill="#FFF" cx="15.5" cy="15.5" r="15.5"/><path d="M8.66544118 21.8280334V7.95321655c0-.35247979.12225399-.65154906.36676564-.89721679.24451164-.24566774.54217353-.36849976.8929946-.36849976h3.76333438c.3508211 0 .648483.12283202.8929946.36849976.2445117.24566773.3667656.544737.3667656.89721679v.36849976l.191356-.3364563c.1700951-.29907376.4225762-.49400284.7574508-.58479309.3348747-.09079025.6511404-.05073633.9488068.12016296l3.2371054 1.87454224c.2976663.1815805.4916781.44059585.5820411.77705388.090363.3364579.0504976.654219-.1195975.9532928l-.143517.2403259.239195-.1441955c.2976664-.1708993.6139321-.2109532.9488068-.120163.3348746.0907903.5873557.2857193.7574508.5847931l1.8657208 3.2524109c.1700951.2990737.2099605.6168349.1195975.9532928-.090363.336458-.2843748.5901328-.5820411.7610321l-.2073023.1281739h.191356c.350821 0 .6484829.122832.8929946.3684997.2445116.2456678.3667656.544737.3667656.8972168v3.7811279c0 .3524798-.122254.6515491-.3667656.8972168-.2445117.2456678-.5421736.3684998-.8929946.3684998H9.92520142c-.18072601 0-.34550312-.0320431-.4943363-.0961304-.14883318-.0640872-.28171795-.1548761-.3986583-.2723694-.11694036-.1174932-.207302-.2510063-.27108765-.4005432-.06378565-.1495368-.09567799-.3150931-.09567799-.4966736zm1.25976024-5.0468444h.15946328l3.6038711-6.2805176V8.57806396c0-.17089929-.061127-.31776366-.1833828-.44059753-.1222558-.12283387-.2684291-.18424988-.4385242-.18424988h-2.5195204c-.1700951 0-.3162683.06141601-.4385242.18424988-.12225579.12283387-.18338278.26969824-.18338278.44059753V16.781189zm11.11459348 0l1.5467942-.8972168c.1488332-.0854497.2445103-.210952.287034-.3765107.0425238-.1655586.0212622-.3231041-.0637853-.4726409l-1.2438139-2.1789551c-.0850475-.1495369-.2099592-.2456663-.3747388-.2883911-.1647796-.0427249-.326899-.0213628-.4863632.0640869l-7.1599031 4.1496277h7.4947761zm-2.8065544-4.1656494l.9089409-1.5701294c.0850475-.1495369.1063091-.3097526.0637853-.4806519-.0425237-.1708993-.1382008-.2990718-.287034-.3845215l-2.1687011-1.24969481c-.1488332-.08544964-.3056372-.10681173-.4704168-.06408691-.1647796.04272482-.2896913.14419475-.3747388.30441284l-4.1460464 7.20977788 6.4742109-3.7651062zm4.9274166 5.4473876H10.5949474c-.1700951 0-.3162683.0614161-.4385242.1842499-.1222558.1228339-.18338279.2696983-.18338279.4405976v2.4993896c0 .1708993.06112699.3177637.18338279.4405975.1222559.1228339.2684291.1842499.4385242.1842499h12.5657097c.1700951 0 .3162683-.061416.4385241-.1842499.1222559-.1228338.1833829-.2696982.1833829-.4405975v-2.4993896c0-.1708993-.061127-.3177637-.1833829-.4405976-.1222558-.1228338-.268429-.1842499-.4385241-.1842499z" fill="#363D4A"/></g></svg>